<svg width="91" height="91" viewBox="0 0 91 91" fill="none" xmlns="http://www.w3.org/2000/svg">
<path fill-rule="evenodd" clip-rule="evenodd" d="M40.8967 0.595901C34.0203 1.31464 26.737 3.90385 21.0181 7.66251C17.8841 9.72254 15.8458 11.4387 12.9751 14.4353C-0.190065 28.1777 -3.28506 48.5011 5.17176 65.6764C11.254 78.029 23.1374 87.2086 36.4989 89.8758C44.7726 91.5274 52.3365 91.0419 60.4884 88.3357C62.5844 87.6399 69.4697 84.3005 69.4697 83.9795C69.4697 83.8574 69.6028 83.7548 69.7651 83.752C69.9278 83.7491 70.3265 83.5269 70.6515 83.2587C70.9764 82.9902 71.0929 82.8496 70.9102 82.946C70.6855 83.0646 70.6354 83.0289 70.7547 82.8358C70.8519 82.6789 71.0544 82.5929 71.205 82.6449C71.5827 82.7751 74.1936 80.7404 74.1074 80.383C74.0691 80.2239 74.0847 80.18 74.1419 80.2854C74.1991 80.3908 74.4449 80.297 74.6883 80.0765C74.9317 79.8562 75.0747 79.5851 75.006 79.474C74.9374 79.3629 75.0284 79.3284 75.2085 79.3974C75.6748 79.5764 79.0437 76.3431 78.8008 75.9501C78.6788 75.7527 78.7088 75.7066 78.887 75.817C79.0504 75.9179 79.16 75.8319 79.16 75.6031C79.16 75.3927 79.2548 75.2793 79.3706 75.3507C79.5914 75.4873 80.4852 74.3145 80.3942 74.0077C80.3654 73.9101 80.4746 73.8569 80.6372 73.8896C80.7996 73.9219 80.9033 73.8078 80.8677 73.6357C80.832 73.4634 80.9064 73.3866 81.0331 73.4651C81.1598 73.5433 81.3888 73.3651 81.542 73.0689C81.6954 72.7728 81.9932 72.3327 82.2037 72.0907C82.4146 71.8487 82.5871 71.3263 82.5871 70.9295C82.5871 70.4892 82.7254 70.1701 82.9416 70.1105C83.1692 70.0479 83.2033 70.0827 83.0364 70.2082C82.8201 70.3708 82.6564 71.2306 82.8417 71.2306C82.8733 71.2306 83.3153 70.566 83.8237 69.7534C85.1671 67.6071 85.1751 67.5918 84.8854 67.7709C84.7443 67.8581 84.5604 67.8187 84.4767 67.6835C84.393 67.5481 84.4122 67.4526 84.5195 67.4712C85.0007 67.5547 85.2309 67.402 85.6223 66.7395C85.8527 66.3493 85.9759 65.9239 85.8958 65.7941C85.8156 65.6643 85.8676 65.5582 86.0116 65.5582C86.3604 65.5582 86.9442 64.1387 86.7759 63.7001C86.6956 63.4909 86.7433 63.4157 86.8965 63.5103C87.2118 63.705 87.6982 62.3902 87.5181 61.8291C87.4074 61.4838 87.4264 61.4758 87.6426 61.7766C87.8225 62.0267 87.9076 62.0439 87.931 61.8357C87.9745 61.4474 88.0274 61.2687 88.246 60.7721C88.3462 60.5448 88.3649 60.1936 88.2874 59.9917C88.2101 59.7899 88.2378 59.6812 88.3491 59.7499C88.8274 60.0456 90.6558 52.369 90.4096 51.0984C90.3422 50.75 90.3947 50.4293 90.5266 50.3853C90.6733 50.3364 90.7773 48.8438 90.7953 46.5278C90.8255 42.6092 90.5615 38.6132 90.3004 39.0348C90.2179 39.1681 90.1425 38.7824 90.1328 38.1776C90.1139 36.9987 89.39 33.7009 89.0565 33.2748C88.9454 33.1327 88.9097 32.9614 88.9773 32.894C89.0446 32.8264 88.9846 32.4676 88.8435 32.0966C88.6412 31.5643 88.5419 31.4943 88.3746 31.7652C88.2115 32.0292 88.1711 31.99 88.2009 31.5965C88.2222 31.3145 88.3195 31.1334 88.4174 31.1939C88.7372 31.3915 88.1139 29.9047 87.7504 29.6028C87.4654 29.3663 87.3503 29.3752 87.16 29.6482C86.9582 29.9382 86.9385 29.9359 87.026 29.6331C87.0825 29.4381 87.2994 29.2927 87.5084 29.31C87.8452 29.3379 87.852 29.2578 87.5677 28.601C86.6814 26.5539 85.914 25.0094 85.7187 24.8796C85.5991 24.8002 85.5216 24.661 85.5469 24.5705C85.5722 24.4802 85.256 23.774 84.8442 23.0016C84.1605 21.7189 83.9045 21.4767 83.3378 21.575C83.2305 21.5937 83.2113 21.4982 83.295 21.3628C83.3786 21.2276 83.567 21.1909 83.7135 21.2814C83.8601 21.3722 83.7391 21.108 83.4448 20.6946C82.8603 19.8738 82.5512 19.6859 82.9206 20.376C83.0898 20.6922 83.07 20.8095 82.8476 20.8095C82.6618 20.8095 82.5682 20.5762 82.6081 20.2129C82.6842 19.5188 81.8428 18.2091 81.4689 18.4403C81.3144 18.5358 81.2829 18.4866 81.3888 18.315C81.4961 18.1415 80.939 17.332 79.9483 16.2221C76.9655 12.8799 76.6566 12.5956 76.1785 12.7516C75.85 12.8587 75.8169 12.8369 76.0523 12.6686C76.3004 12.4914 76.1482 12.2619 75.3709 11.6417C74.8207 11.2026 74.2702 10.8726 74.1478 10.9083C74.0253 10.944 73.9863 10.8743 74.061 10.7535C74.2071 10.5174 72.0317 8.83882 69.3515 7.11938C61.3194 1.96672 50.817 -0.440964 40.8967 0.595901ZM39.6727 4.94166C33.352 5.927 27.1691 8.4212 21.9635 12.0856C19.1015 14.1002 14.2802 18.9234 12.2192 21.8336C10.3767 24.4358 7.88269 29.3008 6.84157 32.3246C5.6135 35.8916 4.94132 39.6997 4.78226 43.9913C4.70402 46.1038 4.726 47.832 4.83094 47.832C5.81061 47.832 28.0483 43.7089 28.2267 43.4943C28.3567 43.3378 31.5418 39.118 35.3044 34.1171C44.436 21.9803 45.7419 20.2885 45.9338 20.3467C46.1006 20.3973 46.9475 21.5135 57.3724 35.4237C60.6848 39.8434 63.4589 43.5333 63.5371 43.6233C63.6151 43.7131 68.767 44.6966 74.9859 45.8084C81.2045 46.9204 86.3904 47.8906 86.5098 47.9644C87.1427 48.3555 87.1236 45.1246 86.4611 39.7961C86.0905 36.8139 86.1047 36.8997 85.9078 36.4395C85.8133 36.2183 85.8048 35.9257 85.8889 35.7895C85.9733 35.6534 85.918 35.5418 85.7665 35.5418C85.615 35.5418 85.5472 35.3953 85.6159 35.2161C85.6847 35.037 85.6547 34.7976 85.5493 34.6844C85.2182 34.3284 84.5703 31.7569 84.7419 31.4792C84.8414 31.318 84.7986 31.2805 84.6327 31.3833C84.3794 31.5397 84.2666 31.2124 84.2959 30.4038C84.3016 30.2426 84.212 30.1691 84.0967 30.2405C83.9813 30.3117 83.887 30.2568 83.887 30.1186C83.887 29.9803 83.6306 29.3353 83.3169 28.6856C83.0035 28.0356 82.8705 27.5745 83.0215 27.6612C83.1725 27.7477 83.0435 27.5409 82.7344 27.2015C82.3987 26.8328 82.2312 26.4322 82.3181 26.2058C82.398 25.9973 82.3685 25.8858 82.2524 25.9574C82.1361 26.0292 81.7481 25.5828 81.3895 24.9652C81.0312 24.3478 80.3189 23.2207 79.8067 22.4608C79.2943 21.7007 78.8537 20.9328 78.8275 20.7542C78.8013 20.5755 78.6888 20.3462 78.5774 20.2451C78.4654 20.1429 78.4649 20.2191 78.5767 20.4155C78.7502 20.7211 78.723 20.7253 78.3782 20.4457C78.1581 20.2673 77.9783 19.9569 77.9783 19.7563C77.9783 19.5556 77.9107 19.4587 77.8282 19.5412C77.7457 19.6237 77.3735 19.3079 77.001 18.8392C76.3307 17.9957 76.1062 17.4169 76.5576 17.6958C76.694 17.7802 76.7294 17.6795 76.6427 17.4535C76.5356 17.1742 76.4458 17.1458 76.3189 17.351C76.1934 17.554 75.9833 17.475 75.5836 17.0754C75.2759 16.7676 75.0532 16.428 75.0889 16.3209C75.1246 16.2136 75.0532 16.1881 74.9306 16.264C74.8077 16.3399 74.5002 16.1387 74.247 15.8168C73.9939 15.4951 73.7195 15.2992 73.6373 15.3815C73.555 15.4637 73.4876 15.3358 73.4876 15.0976C73.4876 14.8594 73.425 14.7268 73.3487 14.8033C73.2723 14.8797 72.2634 14.1718 71.1067 13.2304C65.8663 8.96504 58.0552 5.68073 51.1526 4.84027C48.3181 4.4952 42.1893 4.54932 39.6727 4.94166ZM72.4066 13.7254C72.4409 13.96 72.5477 14.1345 72.6436 14.1127C73.0024 14.0317 73.0161 13.8565 72.685 13.5819C72.4075 13.3514 72.3555 13.3784 72.4066 13.7254ZM76.5602 13.887C76.5602 13.9359 76.7464 14.1222 76.9738 14.3006C77.3487 14.5944 77.3569 14.5861 77.0631 14.2113C76.7542 13.8175 76.5602 13.6925 76.5602 13.887ZM74.3274 14.4866C74.2513 14.6098 74.2898 14.7726 74.4129 14.8487C74.5361 14.9248 74.6989 14.8863 74.775 14.7632C74.8512 14.64 74.8126 14.4772 74.6895 14.4011C74.5663 14.325 74.4035 14.3635 74.3274 14.4866ZM77.5056 14.367C77.5056 14.4119 77.6651 14.5812 77.8601 14.7431C78.0646 14.9128 78.2146 14.9357 78.2146 14.7972C78.2146 14.6653 78.0551 14.4961 77.8601 14.4212C77.6651 14.3465 77.5056 14.3221 77.5056 14.367ZM76.0572 16.5748C75.7635 16.9496 75.7717 16.9579 76.1466 16.6641C76.5403 16.3552 76.6654 16.1612 76.4708 16.1612C76.4219 16.1612 76.2357 16.3474 76.0572 16.5748ZM78.0615 18.4126C77.9596 18.6781 77.8424 18.7062 77.6171 18.5192C77.3995 18.3384 77.2662 18.3384 77.1546 18.519C77.0683 18.6587 77.1385 18.7435 77.3108 18.7078C77.4829 18.6721 77.5956 18.8024 77.5614 18.9974C77.5212 19.2252 77.6585 19.1654 77.9454 18.8303C78.1912 18.5431 78.4758 18.3836 78.5777 18.4757C78.6798 18.5677 78.6866 18.51 78.593 18.3474C78.3687 17.9577 78.2295 17.9747 78.0615 18.4126ZM81.2787 19.1051C81.4356 19.2945 81.4963 19.5592 81.4134 19.6934C81.3226 19.8404 81.4124 19.8799 81.6396 19.7927C81.9809 19.6617 81.9785 19.6057 81.6152 19.2044C81.1449 18.6847 80.8599 18.6008 81.2787 19.1051ZM78.32 19.2543C78.2328 19.3956 78.2569 19.6069 78.3737 19.7237C78.4992 19.8492 78.5859 19.7442 78.5859 19.4668C78.5859 18.9295 78.5422 18.8948 78.32 19.2543ZM86.7419 27.8801C86.7532 28.1554 86.8092 28.2114 86.8846 28.0231C86.9529 27.8524 86.9444 27.6485 86.866 27.57C86.7875 27.4915 86.7317 27.631 86.7419 27.8801ZM84.9506 32.2329C85.031 32.3629 85.1435 32.4693 85.2009 32.4693C85.2583 32.4693 85.3051 32.3629 85.3051 32.2329C85.3051 32.1029 85.1924 31.9966 85.0548 31.9966C84.9173 31.9966 84.8702 32.1029 84.9506 32.2329ZM41.9312 37.9105C39.7672 40.7897 38.0423 43.1908 38.0981 43.2466C38.1536 43.3024 41.7197 43.3199 46.0222 43.2856L53.8451 43.2232L51.0768 39.5598C49.5542 37.5449 47.7589 35.1717 47.0869 34.2861L45.8655 32.6756L41.9312 37.9105ZM33.2955 49.4274L30.6753 52.9135L38.238 52.9759C42.3973 53.0102 49.2732 53.0102 53.5175 52.9759L61.2348 52.9135L58.5865 49.4274L55.9385 45.9412H45.9272H35.9156L33.2955 49.4274ZM67.7578 49.2719C68.0379 49.7148 69.075 51.1154 70.0627 52.3839C71.0927 53.7067 71.7871 54.8057 71.6912 54.961C71.59 55.1248 71.628 55.1674 71.7878 55.0688C71.9398 54.9747 72.2813 55.2475 72.5926 55.7114C72.8899 56.1548 73.6996 57.2486 74.3919 58.1425L75.651 59.7677L60.6064 59.8284C52.3318 59.862 38.8868 59.862 30.7287 59.8284L15.8954 59.7677L20.0048 54.3633C22.265 51.3907 24.0646 48.9091 24.0039 48.8481C23.8481 48.6926 5.58537 51.8944 5.31782 52.1241C5.02451 52.3758 6.17672 57.0225 7.24242 59.8858C9.51941 66.0033 13.0032 71.1862 17.8744 75.7023C23.3565 80.7848 30.1307 84.2648 37.7057 85.8895C40.6979 86.5312 47.376 86.7803 50.7215 86.3747C59.9441 85.2565 68.1386 81.2863 74.7557 74.7302C75.9079 73.5884 76.9376 72.708 77.0438 72.7735C77.1497 72.8392 77.3134 72.7683 77.4075 72.6161C77.5143 72.4433 77.4763 72.4027 77.3059 72.5081C77.1558 72.6007 77.0329 72.5771 77.0329 72.4552C77.0329 72.1233 77.6427 71.6828 77.8353 71.8754C77.9277 71.9678 77.948 71.8872 77.8807 71.6962C77.8124 71.5026 78.1314 70.93 78.6008 70.4034C79.0643 69.8834 79.3633 69.6074 79.2652 69.7901C79.1456 70.0127 79.1789 70.0652 79.3661 69.9494C79.5198 69.8546 79.6256 69.652 79.6018 69.4994C79.5252 69.0111 79.9093 68.3918 80.1893 68.5518C80.3382 68.6369 80.3798 68.6182 80.2817 68.5102C80.1839 68.4022 80.2555 68.0822 80.441 67.7991C81.2075 66.6296 82.9147 63.3994 83.3006 62.3888C83.5285 61.792 83.8034 61.3039 83.9116 61.3039C84.0199 61.3039 84.0407 61.1269 83.9577 60.9106C83.8636 60.6656 83.9007 60.5755 84.0565 60.6717C84.194 60.7565 84.3016 60.6944 84.2959 60.5332C84.2692 59.7927 84.3777 59.3964 84.5741 59.5176C84.6918 59.5906 84.7284 59.4207 84.6549 59.1402C84.5817 58.8596 84.618 58.6892 84.736 58.7615C84.8542 58.8336 84.9688 58.5578 84.9908 58.1484C85.013 57.7391 85.1624 57.0851 85.3231 56.6951C85.4838 56.3051 85.6282 55.8797 85.6441 55.7497C85.6601 55.6197 85.8218 54.7334 86.0033 53.7802C86.39 51.7495 86.3855 51.7434 84.3621 51.5146C83.615 51.43 82.9426 51.2995 82.8677 51.2246C82.7927 51.1496 82.1721 51.0447 81.4883 50.9913C80.8046 50.9379 80.187 50.8088 80.1161 50.7048C80.1161 50.7048 80.6734 50.8251 78.8998 50.5954C79.2891 50.6928 79.0137 50.7795 78.8998 50.5954C78.5881 50.5174 76.0993 50.0695 73.3695 49.6004C70.6396 49.131 68.1457 48.6838 67.8275 48.6065L67.2487 48.4664L67.7578 49.2719ZM88.3777 57.5223C88.3777 57.7823 88.4186 57.995 88.4682 57.995C88.5181 57.995 88.6145 57.7823 88.6825 57.5223C88.7504 57.2624 88.7097 57.0496 88.5918 57.0496C88.4741 57.0496 88.3777 57.2624 88.3777 57.5223ZM81.8932 66.198C81.7651 66.5348 81.792 66.562 82.0255 66.3304C82.1872 66.1699 82.2598 65.9792 82.187 65.9066C82.1142 65.8338 81.982 65.965 81.8932 66.198ZM78.8653 70.333C78.7121 70.7319 79.2231 70.7893 79.5668 70.4117C79.668 70.3006 79.6271 70.2803 79.4756 70.367C79.3243 70.4537 79.1577 70.3963 79.1054 70.2396C79.0433 70.0534 78.9601 70.0857 78.8653 70.333ZM80.8705 72.592C80.5944 73.1807 80.6011 73.1999 80.957 72.8439C81.1688 72.6322 81.303 72.3455 81.2555 72.207C81.208 72.0685 81.0345 72.2417 80.8705 72.592ZM79.9873 73.3578C80.0676 73.4878 80.1801 73.5941 80.2376 73.5941C80.295 73.5941 80.3418 73.4878 80.3418 73.3578C80.3418 73.2278 80.229 73.1214 80.0915 73.1214C79.9539 73.1214 79.9069 73.2278 79.9873 73.3578ZM76.2182 74.2831C76.1421 74.4062 76.1806 74.5691 76.3037 74.6452C76.4269 74.7213 76.5897 74.6827 76.6658 74.5596C76.7419 74.4365 76.7034 74.2736 76.5803 74.1975C76.4571 74.1214 76.2943 74.1599 76.2182 74.2831ZM79.6327 74.5395C79.4935 74.7995 79.433 75.0122 79.498 75.0122C79.563 75.0122 79.7299 74.7995 79.8691 74.5395C80.0083 74.2795 80.0688 74.0668 80.0038 74.0668C79.9388 74.0668 79.7719 74.2795 79.6327 74.5395ZM74.313 75.9921C74.3305 76.2278 74.4177 76.4759 74.507 76.5438C74.5964 76.6114 74.62 76.5995 74.5595 76.5175C74.4992 76.4353 74.5465 76.1871 74.6649 75.9659C74.815 75.6856 74.7895 75.5636 74.5808 75.5636C74.4163 75.5636 74.2957 75.7565 74.313 75.9921Z" fill="white"/>
</svg>
