<svg width="90" height="75" viewBox="0 0 90 75" fill="none" xmlns="http://www.w3.org/2000/svg">
<path d="M0.867188 0.671875L3.85264 0.671875L15.6713 9.184L15.6713 48.5816C15.6713 54.6536 20.606 59.5758 26.6934 59.5758C32.7807 59.5758 37.7154 54.6536 37.7154 48.5816L37.7154 27.0672C37.7154 12.7499 49.3509 1.14351 63.7034 1.14351C78.0566 1.14351 89.6918 12.7499 89.6918 27.0672L89.6918 74.5087L86.7314 74.5087L74.8878 65.9531L74.8878 27.0672C74.8878 20.9057 69.8805 15.9109 63.7034 15.9109C57.5267 15.9109 52.5197 20.9057 52.5197 27.0672L52.5197 48.5816C52.5197 62.8094 40.9567 74.3437 26.6934 74.3437C12.43 74.3437 0.867188 62.8094 0.867188 48.5816L0.867188 0.671875Z" fill="white"/>
</svg>
