<svg width="512" height="512" viewBox="0 0 512 512" fill="none" xmlns="http://www.w3.org/2000/svg">
<g clip-path="url(#clip0_643_10363)">
<rect width="512" height="512" rx="256" fill="#181A1E"/>
<path d="M216.351 34.6406L-69.2451 480.268H61.6795L226.649 223.392L222.621 221.571L176.878 405.384L273.723 422.441L373.265 297.366L367.871 294.669L334.246 436.766L554.851 394.743L511.594 323.54L426.153 343.074L435.119 353.406L470.53 205.004L388.045 149.839L279.992 285.702L285.386 288.399L329.763 110.4L216.351 34.6406Z" fill="white"/>
<path d="M216.351 34.6406L-69.2451 480.268L29.5 530L226.649 223.392L222.621 221.571L176.878 405.384L273.723 422.441L373.265 297.366L367.871 294.669L334.246 436.766L419.077 420.605L470.53 205.004L388.045 149.839L279.992 285.702L285.386 288.399L329.763 110.4L216.351 34.6406Z" fill="white"/>
</g>
<defs>
<clipPath id="clip0_643_10363">
<rect width="512" height="512" rx="256" fill="white"/>
</clipPath>
</defs>
</svg>
