<svg width="48" height="49" viewBox="0 0 48 49" xmlns="http://www.w3.org/2000/svg" xmlns:xlink="http://www.w3.org/1999/xlink" fill="none" overflow="hidden"><defs><linearGradient x1="34.0684" y1="0.183598" x2="-3.70451" y2="45.4932" gradientUnits="userSpaceOnUse" id="paint0_linear_243_9363"><stop offset="0" stop-color="#4E7FFF"/><stop offset="1" stop-color="#D2DFFF"/></linearGradient><linearGradient x1="47.9999" y1="0.183593" x2="9.63551" y2="44.1543" gradientUnits="userSpaceOnUse" id="paint1_linear_243_9363"><stop offset="0" stop-color="#D2DFFF"/><stop offset="1" stop-color="#4E7FFF"/></linearGradient></defs><path d="M8 24.1836C8 15.347 15.1634 8.18359 24 8.18359 32.8366 8.18359 40 15.347 40 24.1836 40 33.0201 32.8366 40.1836 24 40.1836 15.1634 40.1836 8 33.0201 8 24.1836Z" fill="#FFFFFF"/><path d="M23.9999 48.1836C18.0359 48.0395 15.6751 44.0527 14.9544 40.2026 14.5633 38.1094 14.7348 34.6291 14.9544 33.3869 15.1831 32.0896 15.502 30.4287 15.8695 28.5145 16.0755 27.4414 16.2968 26.2887 16.5261 25.0758 17.4389 20.2374 19.8615 17.4853 25.0911 16.5039L33.6453 14.8703C33.8717 13.6006 34.3013 10.2379 33.9101 8.16529 33.1838 4.27996 30.1928 0.257801 24.1242 0.183908 24.0828 0.183699 24.0414 0.183594 24 0.183594 10.7452 0.183594 0 10.9288 0 24.1836 0 37.4384 10.7451 48.1836 23.9999 48.1836Z" fill="url(#paint0_linear_243_9363)"/><path d="M47.9999 24.1015 47.9999 24.2657C47.9556 37.4827 37.2275 48.1836 24 48.1836 23.9585 48.1836 23.9169 48.1835 23.8754 48.1833 17.8078 48.1093 15.0913 44.0853 14.365 40.2 14.0184 38.3641 14.5658 35.4619 14.8528 33.9405 14.8898 33.7444 14.9225 33.5712 14.9483 33.4262L22.9086 31.8633C28.1383 30.8819 30.5609 28.1298 31.4737 23.2914 31.703 22.0785 31.9242 20.9259 32.1303 19.8528 32.4978 17.9385 32.8166 16.2776 33.0453 14.9803 33.0717 14.8313 33.1058 14.6503 33.1448 14.4435 33.431 12.9251 33.9798 10.0144 33.6355 8.17216 32.9149 4.322 29.9638 0.327717 23.9999 0.183594 23.9998 0.183594 23.9999 0.183594 23.9999 0.183594 37.2273 0.183594 47.9556 10.8844 47.9999 24.1015Z" fill="url(#paint1_linear_243_9363)"/></svg>